<mxfile host="app.diagrams.net" agent="Mozilla/5.0 (Windows NT 10.0; Win64; x64) AppleWebKit/537.36 (KHTML, like Gecko) Chrome/131.0.0.0 Safari/537.36" version="25.0.3">
  <diagram id="prtHgNgQTEPvFCAcTncT" name="ISWE - Case Activity Diagram">
    <mxGraphModel dx="2442" dy="1518" grid="1" gridSize="10" guides="1" tooltips="1" connect="1" arrows="1" fold="1" page="1" pageScale="1" pageWidth="827" pageHeight="1169" math="0" shadow="0">
      <root>
        <mxCell id="0" />
        <mxCell id="1" parent="0" />
        <mxCell id="dNxyNK7c78bLwvsdeMH5-19" value="Chatbot functionality" style="swimlane;html=1;childLayout=stackLayout;resizeParent=1;resizeParentMax=0;horizontal=0;startSize=20;horizontalStack=0;rotation=90;" parent="1" vertex="1">
          <mxGeometry x="170" y="200" width="450" height="420" as="geometry" />
        </mxCell>
        <mxCell id="dNxyNK7c78bLwvsdeMH5-21" value="System" style="swimlane;html=1;startSize=20;horizontal=0;rotation=90;" parent="1" vertex="1">
          <mxGeometry x="285" y="315" width="430" height="210" as="geometry" />
        </mxCell>
        <mxCell id="v3djkxihJ2RpdXpuDqz0-36" style="edgeStyle=orthogonalEdgeStyle;rounded=0;orthogonalLoop=1;jettySize=auto;html=1;" edge="1" parent="dNxyNK7c78bLwvsdeMH5-21" source="dNxyNK7c78bLwvsdeMH5-26" target="v3djkxihJ2RpdXpuDqz0-34">
          <mxGeometry relative="1" as="geometry" />
        </mxCell>
        <mxCell id="dNxyNK7c78bLwvsdeMH5-26" value="Process question" style="rounded=0;whiteSpace=wrap;html=1;fontFamily=Helvetica;fontSize=12;fontColor=#000000;align=center;rotation=0;" parent="dNxyNK7c78bLwvsdeMH5-21" vertex="1">
          <mxGeometry x="175" y="-10" width="80" height="60" as="geometry" />
        </mxCell>
        <mxCell id="v3djkxihJ2RpdXpuDqz0-34" value="Generate&lt;div&gt;answer&lt;/div&gt;" style="rounded=0;whiteSpace=wrap;html=1;fontFamily=Helvetica;fontSize=12;fontColor=#000000;align=center;rotation=0;" vertex="1" parent="dNxyNK7c78bLwvsdeMH5-21">
          <mxGeometry x="175" y="125" width="80" height="60" as="geometry" />
        </mxCell>
        <mxCell id="dNxyNK7c78bLwvsdeMH5-20" value="Customer" style="swimlane;html=1;startSize=20;horizontal=0;rotation=90;" parent="1" vertex="1">
          <mxGeometry x="75" y="315" width="430" height="210" as="geometry" />
        </mxCell>
        <mxCell id="v3djkxihJ2RpdXpuDqz0-22" style="edgeStyle=orthogonalEdgeStyle;rounded=0;orthogonalLoop=1;jettySize=auto;html=1;" edge="1" parent="dNxyNK7c78bLwvsdeMH5-20" source="dNxyNK7c78bLwvsdeMH5-23" target="v3djkxihJ2RpdXpuDqz0-21">
          <mxGeometry relative="1" as="geometry" />
        </mxCell>
        <mxCell id="dNxyNK7c78bLwvsdeMH5-23" value="" style="ellipse;whiteSpace=wrap;html=1;rotation=0;fillColor=#000000;" parent="dNxyNK7c78bLwvsdeMH5-20" vertex="1">
          <mxGeometry x="120.5" y="-75" width="40" height="40" as="geometry" />
        </mxCell>
        <mxCell id="dNxyNK7c78bLwvsdeMH5-24" value="Prompt chat" style="rounded=0;whiteSpace=wrap;html=1;fontFamily=Helvetica;fontSize=12;fontColor=#000000;align=center;rotation=0;" parent="dNxyNK7c78bLwvsdeMH5-20" vertex="1">
          <mxGeometry x="188.25" y="-6" width="90" height="50" as="geometry" />
        </mxCell>
        <mxCell id="v3djkxihJ2RpdXpuDqz0-26" style="edgeStyle=orthogonalEdgeStyle;rounded=0;orthogonalLoop=1;jettySize=auto;html=1;" edge="1" parent="dNxyNK7c78bLwvsdeMH5-20" source="dNxyNK7c78bLwvsdeMH5-30" target="v3djkxihJ2RpdXpuDqz0-9">
          <mxGeometry relative="1" as="geometry" />
        </mxCell>
        <mxCell id="dNxyNK7c78bLwvsdeMH5-30" value="Display answer" style="rounded=0;whiteSpace=wrap;html=1;fontFamily=Helvetica;fontSize=12;fontColor=#000000;align=center;rotation=0;" parent="dNxyNK7c78bLwvsdeMH5-20" vertex="1">
          <mxGeometry x="186.13" y="75" width="94.25" height="40" as="geometry" />
        </mxCell>
        <mxCell id="v3djkxihJ2RpdXpuDqz0-23" style="edgeStyle=orthogonalEdgeStyle;rounded=0;orthogonalLoop=1;jettySize=auto;html=1;" edge="1" parent="dNxyNK7c78bLwvsdeMH5-20" source="v3djkxihJ2RpdXpuDqz0-21" target="dNxyNK7c78bLwvsdeMH5-24">
          <mxGeometry relative="1" as="geometry" />
        </mxCell>
        <mxCell id="v3djkxihJ2RpdXpuDqz0-21" value="Clicked into&amp;nbsp;&lt;div&gt;chatbot chatbox&lt;/div&gt;" style="rounded=0;whiteSpace=wrap;html=1;fontFamily=Helvetica;fontSize=12;fontColor=#000000;align=center;rotation=0;" vertex="1" parent="dNxyNK7c78bLwvsdeMH5-20">
          <mxGeometry x="193.75" y="-80" width="79" height="50" as="geometry" />
        </mxCell>
        <mxCell id="v3djkxihJ2RpdXpuDqz0-28" style="edgeStyle=orthogonalEdgeStyle;rounded=0;orthogonalLoop=1;jettySize=auto;html=1;entryX=0;entryY=0.5;entryDx=0;entryDy=0;" edge="1" parent="dNxyNK7c78bLwvsdeMH5-20" source="v3djkxihJ2RpdXpuDqz0-9" target="dNxyNK7c78bLwvsdeMH5-24">
          <mxGeometry relative="1" as="geometry">
            <Array as="points">
              <mxPoint x="165" y="188" />
              <mxPoint x="165" y="100" />
              <mxPoint x="164" y="100" />
              <mxPoint x="164" y="19" />
            </Array>
          </mxGeometry>
        </mxCell>
        <mxCell id="v3djkxihJ2RpdXpuDqz0-29" value="Yes" style="edgeLabel;html=1;align=center;verticalAlign=middle;resizable=0;points=[];" vertex="1" connectable="0" parent="v3djkxihJ2RpdXpuDqz0-28">
          <mxGeometry x="-0.5181" y="2" relative="1" as="geometry">
            <mxPoint as="offset" />
          </mxGeometry>
        </mxCell>
        <mxCell id="v3djkxihJ2RpdXpuDqz0-9" value="Continue&lt;div&gt;chat?&lt;/div&gt;" style="rhombus;whiteSpace=wrap;html=1;" vertex="1" parent="dNxyNK7c78bLwvsdeMH5-20">
          <mxGeometry x="183.88" y="155" width="98.75" height="65" as="geometry" />
        </mxCell>
        <mxCell id="v3djkxihJ2RpdXpuDqz0-3" value="" style="group" vertex="1" connectable="0" parent="1">
          <mxGeometry x="278" y="567" width="60" height="60" as="geometry" />
        </mxCell>
        <mxCell id="v3djkxihJ2RpdXpuDqz0-1" value="" style="ellipse;whiteSpace=wrap;html=1;aspect=fixed;" vertex="1" parent="v3djkxihJ2RpdXpuDqz0-3">
          <mxGeometry width="60" height="60" as="geometry" />
        </mxCell>
        <mxCell id="dNxyNK7c78bLwvsdeMH5-32" value="" style="ellipse;whiteSpace=wrap;html=1;rotation=0;fillColor=#000000;" parent="v3djkxihJ2RpdXpuDqz0-3" vertex="1">
          <mxGeometry x="10" y="10" width="40" height="40" as="geometry" />
        </mxCell>
        <mxCell id="v3djkxihJ2RpdXpuDqz0-24" style="edgeStyle=orthogonalEdgeStyle;rounded=0;orthogonalLoop=1;jettySize=auto;html=1;" edge="1" parent="1" source="dNxyNK7c78bLwvsdeMH5-24" target="dNxyNK7c78bLwvsdeMH5-26">
          <mxGeometry relative="1" as="geometry" />
        </mxCell>
        <mxCell id="v3djkxihJ2RpdXpuDqz0-32" style="edgeStyle=orthogonalEdgeStyle;rounded=0;orthogonalLoop=1;jettySize=auto;html=1;entryX=0.5;entryY=0;entryDx=0;entryDy=0;" edge="1" parent="1" source="v3djkxihJ2RpdXpuDqz0-9" target="v3djkxihJ2RpdXpuDqz0-1">
          <mxGeometry relative="1" as="geometry" />
        </mxCell>
        <mxCell id="v3djkxihJ2RpdXpuDqz0-33" value="No" style="edgeLabel;html=1;align=center;verticalAlign=middle;resizable=0;points=[];" vertex="1" connectable="0" parent="v3djkxihJ2RpdXpuDqz0-32">
          <mxGeometry x="-0.2824" y="-1" relative="1" as="geometry">
            <mxPoint y="2" as="offset" />
          </mxGeometry>
        </mxCell>
        <mxCell id="v3djkxihJ2RpdXpuDqz0-37" style="edgeStyle=orthogonalEdgeStyle;rounded=0;orthogonalLoop=1;jettySize=auto;html=1;entryX=1;entryY=0.5;entryDx=0;entryDy=0;" edge="1" parent="1" source="v3djkxihJ2RpdXpuDqz0-34" target="dNxyNK7c78bLwvsdeMH5-30">
          <mxGeometry relative="1" as="geometry">
            <Array as="points">
              <mxPoint x="430" y="470" />
              <mxPoint x="430" y="410" />
            </Array>
          </mxGeometry>
        </mxCell>
      </root>
    </mxGraphModel>
  </diagram>
</mxfile>
